<?xml version="1.0" encoding="utf-8"?>
<!-- Svg Vector Icons : http://www.onlinewebfonts.com/icon -->
<!DOCTYPE svg PUBLIC "-//W3C//DTD SVG 1.1//EN" "http://www.w3.org/Graphics/SVG/1.1/DTD/svg11.dtd">
<svg version="1.1" xmlns="http://www.w3.org/2000/svg" xmlns:xlink="http://www.w3.org/1999/xlink" x="0px" y="0px" viewBox="0 0 256 256" enable-background="new 0 0 256 256" xml:space="preserve">
<metadata> Svg Vector Icons : http://www.onlinewebfonts.com/icon </metadata>
<g><g><path fill="#000000" d="M69,54.3c8.1,0,14.7-6.6,14.7-14.8V24.7C83.7,16.6,77.1,10,69,10s-14.7,6.6-14.7,14.7v14.7C54.3,47.6,60.9,54.3,69,54.3L69,54.3z M187,54.3c8.2,0,14.8-6.6,14.8-14.8V24.7c0-8.1-6.6-14.7-14.8-14.7s-14.7,6.6-14.7,14.7v14.7C172.2,47.6,178.8,54.3,187,54.3L187,54.3z M216.5,24.7v14.7c0,16.3-13.2,29.5-29.5,29.5s-29.5-13.2-29.5-29.5V24.7h-59v14.7C98.5,55.8,85.3,69,69,69S39.5,55.8,39.5,39.5V24.7C23.2,24.7,10,38,10,54.3v162.2c0,16.3,13.2,29.5,29.5,29.5h177c16.3,0,29.5-13.2,29.5-29.5V54.3C246,38,232.8,24.7,216.5,24.7L216.5,24.7z M216.5,201.8c0,8.2-6.6,14.7-14.7,14.7H54.3c-8.1,0-14.8-6.6-14.8-14.7v-88.5c0-8.1,6.6-14.7,14.8-14.7h147.5c8.2,0,14.7,6.6,14.7,14.7V201.8L216.5,201.8z M164.7,124.1c5.6,5.6,5.6,14.7,0,20.4l-53,53c-5.6,5.6-14.7,5.6-20.4,0l0,0c-5.6-5.6-5.6-14.7,0-20.4l53-53C149.9,118.5,159,118.5,164.7,124.1L164.7,124.1z M91.3,124.1c5.6-5.6,14.7-5.6,20.4,0l53,53c5.6,5.6,5.6,14.7,0,20.4l0,0c-5.6,5.6-14.7,5.6-20.4,0l-53-53C85.7,138.8,85.7,129.7,91.3,124.1L91.3,124.1z"/></g></g>
</svg>