<svg height="24" viewBox="0 0 24 24" width="24" xmlns="http://www.w3.org/2000/svg"><g fill="none"><path d="m0 0h24v24h-24z"/><path d="m11 6c.5523 0 1 .44772 1 1s-.4477 1-1 1h-6v11h11v-6c0-.5523.4477-1 1-1s1 .4477 1 1v6c0 1.1046-.8954 2-2 2h-11c-1.10457 0-2-.8954-2-2v-11c0-1.10457.89543-2 2-2zm9-3c.5523 0 1 .44772 1 1v5c0 .55228-.4477 1-1 1s-1-.44772-1-1v-2.58579l-8.2929 8.29289c-.3905.3905-1.02368.3905-1.41421 0-.39052-.3905-.39052-1.0237 0-1.4142l8.29291-8.2929h-2.5858c-.5523 0-1-.44771-1-1 0-.55228.4477-1 1-1z" fill="#09244b"/></g></svg>